<svg width="32" height="32" viewBox="0 0 32 32" fill="none" xmlns="http://www.w3.org/2000/svg">
<path fill-rule="evenodd" clip-rule="evenodd" d="M6.66654 6.1332C6.37503 6.1332 6.1332 6.37503 6.1332 6.66654V27.9999C6.1332 28.2914 6.37503 28.5332 6.66654 28.5332H25.3332C25.6247 28.5332 25.8665 28.2914 25.8665 27.9999V6.66654C25.8665 6.37503 25.6247 6.1332 25.3332 6.1332H22.1332V6.66654C22.1332 7.8417 21.175 8.79987 19.9999 8.79987H11.9999C10.8247 8.79987 9.86654 7.8417 9.86654 6.66654V6.1332H6.66654ZM4.5332 6.66654C4.5332 5.49138 5.49138 4.5332 6.66654 4.5332H10.6665C11.1084 4.5332 11.4665 4.89138 11.4665 5.3332V6.66654C11.4665 6.95804 11.7084 7.19987 11.9999 7.19987H19.9999C20.2914 7.19987 20.5332 6.95804 20.5332 6.66654V5.3332C20.5332 4.89138 20.8914 4.5332 21.3332 4.5332H25.3332C26.5084 4.5332 27.4665 5.49138 27.4665 6.66654V27.9999C27.4665 29.175 26.5084 30.1332 25.3332 30.1332H6.66654C5.49138 30.1332 4.5332 29.175 4.5332 27.9999V6.66654Z" fill="black"/>
<path fill-rule="evenodd" clip-rule="evenodd" d="M11.9995 3.46719C11.708 3.46719 11.4662 3.70902 11.4662 4.00052V6.66719C11.4662 6.95869 11.708 7.20052 11.9995 7.20052H19.9995C20.291 7.20052 20.5329 6.95869 20.5329 6.66719V4.00052C20.5329 3.70902 20.291 3.46719 19.9995 3.46719H11.9995ZM9.86621 4.00052C9.86621 2.82536 10.8244 1.86719 11.9995 1.86719H19.9995C21.1747 1.86719 22.1329 2.82536 22.1329 4.00052V6.66719C22.1329 7.84235 21.1747 8.80052 19.9995 8.80052H11.9995C10.8244 8.80052 9.86621 7.84235 9.86621 6.66719V4.00052Z" fill="black"/>
<path d="M9.97759 21.4551C9.74775 21.4551 9.62259 21.3597 9.55777 21.2796C9.49407 21.201 9.42814 21.0617 9.47396 20.8456L10.4902 16.1125L9.85168 16.1487H9.84684C9.65462 16.1487 9.51456 16.0864 9.42702 15.978C9.34544 15.8767 9.31601 15.7467 9.34469 15.6126C9.40094 15.3515 9.67362 15.1339 9.96604 15.1175L11.4591 15.033C11.4878 15.0311 11.5146 15.03 11.5395 15.03C11.5943 15.03 11.7392 15.03 11.8316 15.1444C11.9255 15.2606 11.8934 15.4085 11.883 15.4569L10.7193 20.8792C10.6496 21.2085 10.3769 21.4338 10.0242 21.4536L9.97759 21.4551Z" fill="black"/>
<path d="M15.2512 15.5884L15.2002 15.5899C14.4775 15.6313 13.8759 16.4482 13.5909 17.7751C13.4132 18.605 13.4494 19.2275 13.6926 19.5285C13.8033 19.6656 13.9597 19.7349 14.1579 19.7349L14.21 19.7334C14.9327 19.6928 15.534 18.8762 15.8186 17.5493C15.997 16.719 15.9612 16.0962 15.718 15.7956C15.6073 15.6581 15.4501 15.5884 15.2512 15.5884ZM13.9795 20.709C13.4434 20.709 12.9979 20.5082 12.6909 20.1282C12.2577 19.5926 12.1445 18.7682 12.3639 17.7457C12.7483 15.9531 13.9314 14.6959 15.3075 14.6184C15.8998 14.5849 16.39 14.7868 16.7204 15.1954C17.1536 15.7315 17.2669 16.5555 17.0475 17.5784C16.663 19.3702 15.4796 20.627 14.1031 20.7053C14.0614 20.7079 14.0201 20.709 13.9795 20.709Z" fill="black"/>
<path d="M20.8391 14.9764L20.7884 14.9779C20.0658 15.0192 19.4642 15.8361 19.1792 17.1626C19.0011 17.9926 19.0373 18.6158 19.2805 18.9164C19.3912 19.0535 19.5484 19.1232 19.7465 19.1232L19.7987 19.1217C20.521 19.0811 21.1226 18.2645 21.4072 16.9373C21.586 16.1077 21.5499 15.4848 21.307 15.1839C21.1956 15.046 21.0384 14.9764 20.8391 14.9764ZM19.5685 20.0977C19.0321 20.0977 18.5862 19.8965 18.2788 19.5162C17.8456 18.9801 17.7324 18.1561 17.9518 17.1336C18.3366 15.3407 19.5197 14.0838 20.8957 14.0063C21.4929 13.9728 21.9775 14.1751 22.3075 14.5834C22.7408 15.1198 22.854 15.9438 22.6346 16.9663C22.2506 18.7577 21.0678 20.0146 19.691 20.0939C19.6497 20.0969 19.6087 20.0977 19.5685 20.0977Z" fill="black"/>
<path d="M10.0796 24.4336C9.78011 24.4336 9.49774 24.2518 9.38375 23.9557C9.23624 23.5716 9.42771 23.1406 9.81177 22.9935C10.0137 22.9156 14.8463 21.084 21.9601 20.7096C22.3747 20.6839 22.7219 21.0035 22.7435 21.4144C22.7651 21.8253 22.4496 22.1758 22.0387 22.1974C15.1759 22.5587 10.3936 24.3658 10.346 24.384C10.2584 24.4176 10.1683 24.4336 10.0796 24.4336Z" fill="black"/>
</svg>
