<svg width="120" height="120" viewBox="0 0 120 120" fill="none" xmlns="http://www.w3.org/2000/svg">
<rect width="120" height="120" rx="60" fill="white"/>
<g clip-path="url(#clip0_8358_60860)">
<path fill-rule="evenodd" clip-rule="evenodd" d="M8.16797 48.5136L14.9003 41.7811L21.6328 48.5136L14.9003 55.2461L8.16797 48.5136Z" fill="#28D1FF"/>
<path fill-rule="evenodd" clip-rule="evenodd" d="M94.0938 50.3379L99.2405 42.1248H111.497L100.222 60.116L111.497 78.1074H99.2405L94.0938 69.8944L100.222 60.116L94.0938 50.3379Z" fill="#28D1FF"/>
<path d="M10.1172 78.1074V56.4654H19.682V78.1074H10.1172Z" fill="#11294A"/>
<path d="M55.7683 56.1303C56.2336 55.5996 56.7616 55.1284 57.3392 54.7214C59.7161 53.0463 62.8077 52.5259 65.6503 52.953C70.8765 53.738 74.8289 57.4948 74.8289 62.9811V78.1074H65.2645V65.559C65.2645 64.0651 64.9738 62.0677 63.0921 62.0677C60.992 62.0677 60.5196 64.0396 60.5196 65.799V78.1074H51.0166V65.799C51.0166 64.0398 50.5442 62.0677 48.4443 62.0677C46.5624 62.0677 46.2718 64.0653 46.2718 65.559V78.1074H36.707V62.9811C36.707 60.0155 37.8441 57.3727 40.1309 55.4617C44.4315 51.8685 51.9556 51.7746 55.7683 56.1303Z" fill="#11294A"/>
<path d="M23.4141 78.1074V42.1248H32.9789V78.1074H23.4141Z" fill="#11294A"/>
<path d="M87.9663 60.116L76.6914 42.1248H88.9474L100.222 60.116L88.9474 78.1074H76.6914L87.9663 60.116Z" fill="#11294A"/>
</g>
<defs>
<clipPath id="clip0_8358_60860">
<rect width="103.49" height="36.6" fill="white" transform="translate(8.11133 41.7012)"/>
</clipPath>
</defs>
</svg>
